<svg width="23" height="19" viewBox="0 0 23 19" fill="none" xmlns="http://www.w3.org/2000/svg">
<path d="M21.337 17.6667L19.3623 16M10.9697 16.8333C12.2015 16.8333 13.4212 16.6286 14.5593 16.2307C15.6973 15.8329 16.7313 15.2497 17.6023 14.5146C18.4733 13.7795 19.1643 12.9067 19.6357 11.9462C20.107 10.9857 20.3497 9.9563 20.3497 8.91667C20.3497 7.87704 20.107 6.84758 19.6357 5.88709C19.1643 4.9266 18.4733 4.05387 17.6023 3.31874C16.7313 2.58361 15.6973 2.00047 14.5593 1.60262C13.4212 1.20477 12.2015 1 10.9697 1C8.48201 1 6.09618 1.83407 4.3371 3.31874C2.57802 4.8034 1.58978 6.81704 1.58978 8.91667C1.58978 11.0163 2.57802 13.0299 4.3371 14.5146C6.09618 15.9993 8.48201 16.8333 10.9697 16.8333Z" stroke="#121212" stroke-width="1.5" stroke-linecap="round" stroke-linejoin="round"/>
</svg>
