<svg width="16" height="15" viewBox="0 0 16 15" fill="none" xmlns="http://www.w3.org/2000/svg">
<path d="M2.49996 14.3333C1.99579 14.3333 1.56435 14.154 1.20563 13.7952C0.846904 13.4365 0.667237 13.0048 0.666626 12.5V10.6667C0.666626 10.4069 0.754626 10.1894 0.930626 10.014C1.10663 9.83861 1.32418 9.75061 1.58329 9.75C1.8424 9.74939 2.06026 9.83739 2.23688 10.014C2.41349 10.1906 2.50118 10.4082 2.49996 10.6667V12.5H13.5V10.6667C13.5 10.4069 13.588 10.1894 13.764 10.014C13.94 9.83861 14.1575 9.75061 14.4166 9.75C14.6757 9.74939 14.8936 9.83739 15.0702 10.014C15.2468 10.1906 15.3345 10.4082 15.3333 10.6667V12.5C15.3333 13.0042 15.1539 13.4359 14.7952 13.7952C14.4365 14.1546 14.0047 14.3339 13.5 14.3333H2.49996ZM7.08329 3.19583L5.36454 4.91458C5.18121 5.09792 4.96365 5.18592 4.71188 5.17858C4.4601 5.17125 4.24224 5.07561 4.05829 4.89167C3.89024 4.70833 3.80224 4.49444 3.79429 4.25C3.78635 4.00556 3.87435 3.79167 4.05829 3.60833L7.35829 0.308333C7.44996 0.216667 7.54926 0.151889 7.65621 0.114C7.76315 0.0761112 7.87774 0.0568615 7.99996 0.0562504C8.12218 0.0556393 8.23676 0.074889 8.34371 0.114C8.45065 0.153111 8.54996 0.217889 8.64163 0.308333L11.9416 3.60833C12.125 3.79167 12.213 4.00556 12.2056 4.25C12.1983 4.49444 12.1103 4.70833 11.9416 4.89167C11.7583 5.075 11.5407 5.17064 11.289 5.17858C11.0372 5.18653 10.8193 5.09853 10.6354 4.91458L8.91663 3.19583V9.75C8.91663 10.0097 8.82863 10.2276 8.65263 10.4036C8.47663 10.5796 8.25907 10.6673 7.99996 10.6667C7.74085 10.6661 7.52329 10.5781 7.34729 10.4027C7.17129 10.2273 7.08329 10.0097 7.08329 9.75V3.19583Z" fill="black"/>
</svg>
